<?xml version="1.0" encoding="utf-8"?>
<svg version="1.1" xmlns:xlink="http://www.w3.org/1999/xlink" width="29px" height="18px" xmlns="http://www.w3.org/2000/svg">
  <g transform="matrix(1 0 0 1 -305 -582 )">
    <path d="M 2.071428571428571 9  C 3.873139880952381 11.303571428571429  6.1765252976190474 12.97767857142857  8.981584821428573 14.02232142857143  L 10.243861607142858 12.13392857142857  C 9.305245535714285 11.57142857142857  8.571614583333334 10.861607142857142  8.04296875 10.004464285714285  C 7.514322916666668 9.147321428571429  7.25 8.241071428571427  7.25 7.285714285714286  C 7.25 6.205357142857142  7.57905505952381 5.200892857142856  8.237165178571427 4.272321428571429  C 5.76655505952381 5.316964285714286  3.711309523809524 6.892857142857142  2.071428571428571 9  Z M 15.050223214285715 4.312500000000001  C 15.201264880952383 4.187499999999997  15.276785714285715 4.035714285714286  15.276785714285715 3.8571428571428577  C 15.276785714285715 3.6785714285714275  15.201264880952383 3.5267857142857135  15.050223214285715 3.4017857142857144  C 14.899181547619051 3.2767857142857126  14.715773809523808 3.214285714285715  14.5 3.214285714285715  C 13.151413690476192 3.214285714285715  11.994326636904763 3.6138392857142856  11.028738839285715 4.412946428571429  C 10.063151041666668 5.212053571428571  9.580357142857142 6.169642857142858  9.580357142857142 7.285714285714286  C 9.580357142857142 7.4642857142857135  9.655877976190478 7.616071428571427  9.806919642857142 7.741071428571429  C 9.95796130952381 7.866071428571427  10.14136904761905 7.928571428571429  10.357142857142858 7.928571428571429  C 10.572916666666668 7.928571428571429  10.756324404761905 7.866071428571427  10.907366071428573 7.741071428571429  C 11.058407738095239 7.616071428571427  11.133928571428573 7.4642857142857135  11.133928571428573 7.285714285714286  C 11.133928571428573 6.5178571428571415  11.462983630952381 5.861607142857143  12.12109375 5.316964285714286  C 12.77920386904762 4.772321428571427  13.57217261904762 4.499999999999998  14.5 4.5  C 14.715773809523808 4.499999999999998  14.899181547619051 4.437499999999998  15.050223214285715 4.312500000000001  Z M 20.892299107142854 0.9375000000000007  C 21.064918154761905 1.0267857142857126  21.15122767857143 1.1473214285714275  21.15122767857143 1.2991071428571432  C 21.15122767857143 1.361607142857141  21.145833333333336 1.4017857142857113  21.135044642857146 1.419642857142858  C 19.991443452380956 3.107142857142858  18.286830357142854 5.638392857142858  16.021205357142854 9.013392857142858  C 13.75558035714286 12.388392857142858  12.05636160714286 14.915178571428573  10.923549107142858 16.59375  L 10.130580357142858 17.785714285714285  C 10.022693452380953 17.92857142857143  9.871651785714285 18  9.677455357142858 18  C 9.547991071428573 18  8.82514880952381 17.6875  7.508928571428572 17.0625  C 7.3363095238095255 16.973214285714285  7.25 16.848214285714285  7.25 16.6875  C 7.25 16.580357142857142  7.487351190476192 16.191964285714285  7.962053571428572 15.522321428571429  C 6.419270833333334 14.941964285714285  4.997860863095239 14.169642857142858  3.697823660714286 13.205357142857142  C 2.3977864583333335 12.241071428571429  1.2730654761904765 11.147321428571427  0.3236607142857143 9.924107142857142  C 0.10788690476190475 9.647321428571427  0 9.339285714285714  0 9  C 0 8.660714285714285  0.10788690476190475 8.352678571428571  0.3236607142857143 8.075892857142858  C 1.9743303571428574 5.977678571428571  4.0241815476190474 4.32142857142857  6.4732142857142865 3.107142857142858  C 8.922247023809526 1.8928571428571421  11.597842261904763 1.2857142857142851  14.5 1.2857142857142851  C 15.460193452380953 1.2857142857142851  16.4311755952381 1.361607142857141  17.41294642857143 1.5133928571428568  L 18.286830357142854 0.21428571428571352  C 18.394717261904763 0.07142857142857117  18.54575892857143 0  18.739955357142854 0  C 18.79389880952381 0  18.890997023809526 0.02678571428571419  19.03125 0.08035714285714257  C 19.171502976190478 0.13392857142857095  19.33872767857143 0.20312499999999778  19.532924107142854 0.28794642857142905  C 19.727120535714285 0.3727678571428563  19.90513392857143 0.45535714285714324  20.066964285714285 0.5357142857142858  C 20.228794642857146 0.6160714285714284  20.398716517857146 0.6986607142857113  20.576729910714285 0.7834821428571426  C 20.75474330357143 0.8683035714285698  20.859933035714285 0.9196428571428559  20.892299107142854 0.9375000000000007  Z M 21.620535714285715 6.160714285714286  C 21.70684523809524 6.562500000000001  21.75 6.937499999999999  21.75 7.285714285714286  C 21.75 8.526785714285714  21.323846726190478 9.65848214285714  20.47154017857143 10.680803571428571  C 19.619233630952383 11.703124999999998  18.491815476190478 12.437499999999998  17.089285714285715 12.883928571428571  L 21.620535714285715 6.160714285714286  Z M 28.676339285714285 8.075892857142858  C 28.8921130952381 8.379464285714285  29 8.6875  29 9  C 29 9.312499999999998  28.8921130952381 9.620535714285714  28.676339285714285 9.924107142857142  C 28.255580357142854 10.495535714285712  27.667596726190478 11.142857142857142  26.912388392857146 11.866071428571429  C 25.29408482142857 13.401785714285717  23.419549851190478 14.593750000000002  21.288783482142854 15.441964285714286  C 19.15801711309524 16.29017857142857  16.895089285714285 16.714285714285715  14.5 16.714285714285715  L 15.697544642857144 14.94642857142857  C 17.984747023809526 14.785714285714285  20.102027529761905 14.174107142857142  22.049386160714285 13.111607142857142  C 23.996744791666668 12.04910714285714  25.623139880952383 10.678571428571427  26.92857142857143 9  C 25.687872023809526 7.4017857142857135  24.166666666666668 6.089285714285714  22.364955357142854 5.0625  L 23.384486607142854 3.562499999999999  C 24.409412202380956 4.1339285714285685  25.393880208333336 4.816964285714284  26.337890625 5.611607142857142  C 27.281901041666668 6.406249999999998  28.06138392857143 7.227678571428571  28.676339285714285 8.075892857142858  Z " fill-rule="nonzero" fill="#797979" stroke="none" fill-opacity="0.4196078431372549" transform="matrix(1 0 0 1 305 582 )" />
  </g>
</svg>