<?xml version="1.0" encoding="utf-8"?>
<svg version="1.1" xmlns:xlink="http://www.w3.org/1999/xlink" width="45px" height="39px" xmlns="http://www.w3.org/2000/svg">
  <g transform="matrix(1 0 0 1 -31 -32 )">
    <path d="M 37.5 0  L 45 0  L 39.375 9.75  L 45 9.75  L 45 13.928571428571427  L 36.97265625 13.928571428571427  L 35.361328125 16.714285714285715  L 45 16.714285714285715  L 45 20.892857142857142  L 32.958984375 20.892857142857142  L 22.5 39  L 12.041015625 20.892857142857142  L 0 20.892857142857142  L 0 16.714285714285715  L 9.638671875 16.714285714285715  L 8.02734375 13.928571428571427  L 0 13.928571428571427  L 0 9.75  L 5.625 9.75  L 0 0  L 7.5 0  L 16.962890625 17  L 28.037109375 17  L 37.5 0  Z M 19.3359375 20.892857142857142  L 22.5 26.464285714285715  L 25.6640625 20.892857142857142  L 19.3359375 20.892857142857142  Z " fill-rule="nonzero" fill="#f75f09" stroke="none" transform="matrix(1 0 0 1 31 32 )" />
  </g>
</svg>